<?xml version="1.0" encoding="UTF-8"?>
<svg version="1.1" xmlns="http://www.w3.org/2000/svg" width="904" height="894">
<path d="M0 0 C4.31248609 -0.02886537 8.62494762 -0.04675255 12.9375 -0.0625 C14.16919922 -0.07087891 15.40089844 -0.07925781 16.66992188 -0.08789062 C17.83974609 -0.09111328 19.00957031 -0.09433594 20.21484375 -0.09765625 C21.84087524 -0.10551147 21.84087524 -0.10551147 23.49975586 -0.11352539 C26 0 26 0 27 1 C27.10125615 3.49201851 27.13713232 5.95655945 27.13130188 8.44918823 C27.13341759 9.23857414 27.13553331 10.02796005 27.13771313 10.84126675 C27.14374215 13.50730996 27.1427109 16.17330623 27.1418457 18.83935547 C27.14487545 20.74281393 27.14839639 22.64627167 27.15237427 24.54972839 C27.16028065 28.66072547 27.16541483 32.7717138 27.16866493 36.88271713 C27.17456531 43.38840145 27.19109857 49.89403076 27.21000671 56.39968872 C27.21634482 58.62584492 27.22267044 60.85200116 27.22898388 63.07815742 C27.23214969 64.19337532 27.2353155 65.30859322 27.23857725 66.4576056 C27.28065836 81.6090969 27.31360407 96.76056358 27.32592773 111.91210938 C27.33431827 122.12289737 27.35685064 132.33355023 27.3952834 142.54427063 C27.41501981 147.94767817 27.42745684 153.3508838 27.42244911 158.75432968 C27.41778932 163.84498178 27.43168088 168.9352522 27.45946121 174.02582741 C27.4663521 175.88853642 27.46652233 177.75128508 27.45926094 179.61399269 C27.41576876 192.03080871 27.99079174 203.11234918 36.1640625 213.21484375 C44.18648865 221.01537301 53.59196537 223.41846317 64.45678711 223.36352539 C73.85335017 223.13611583 81.35277359 220.56854155 88.21484375 213.98828125 C95.82362893 205.51372621 98.28672964 197.77579985 98.2734375 186.59375 C98.29371911 184.77994166 98.31456975 182.96613962 98.3359375 181.15234375 C98.35853923 178.32172286 98.37501785 175.49135159 98.38085938 172.66064453 C98.39041297 169.90873292 98.42420974 167.15791478 98.4609375 164.40625 C98.45589203 163.56751343 98.45084656 162.72877686 98.44564819 161.86462402 C98.54127338 156.11317182 99.49981967 152.63381538 103 148 C108.57055722 144.14599959 114.18328009 144.58784916 120.69308472 144.63923645 C121.8783579 144.63667318 123.06363108 144.6341099 124.28482163 144.63146895 C127.56645334 144.62738682 130.84772822 144.63674357 134.12931776 144.65180314 C137.67116743 144.66477269 141.21300082 144.66037339 144.75486755 144.65809631 C150.88861903 144.65652416 157.02227467 144.66592729 163.15600204 144.68280983 C172.02429849 144.70720312 180.89254865 144.71500544 189.760875 144.7187738 C204.14952886 144.72533777 218.53813167 144.74529745 232.92675781 144.77368164 C246.90299224 144.80122362 260.87921272 144.82242212 274.85546875 144.83520508 C275.72591914 144.83600907 276.59636953 144.83681306 277.4931972 144.83764142 C284.30080994 144.84387978 291.10842297 144.84975052 297.91603613 144.85550511 C331.27740428 144.88380015 364.63864461 144.94415644 398 145 C398 97.15 398 49.3 398 0 C406.58 0 415.16 0 424 0 C425.3284921 2.6569842 425.12287926 4.6549151 425.12025452 7.63137817 C425.12231651 9.42771698 425.12231651 9.42771698 425.12442017 11.26034546 C425.12088081 12.59429956 425.117246 13.92825342 425.11352539 15.26220703 C425.11324344 16.661499 425.11340142 18.06079112 425.1139679 19.46008301 C425.11425554 23.26564122 425.10836406 27.07116809 425.10139394 30.876719 C425.095155 34.85123188 425.09455617 38.82574543 425.09336853 42.80026245 C425.09025681 50.32963744 425.08204556 57.85899797 425.07201904 65.38836658 C425.06085297 73.95898551 425.0553462 82.52960511 425.05032361 91.1002295 C425.03986283 108.73349455 425.02226646 126.36674611 425 144 C425.62560822 144.00364563 426.25121643 144.00729126 426.89578247 144.01104736 C433.4175508 144.05291474 439.93861816 144.12229045 446.45996094 144.20751953 C448.89250675 144.23571451 451.32514392 144.25693632 453.7578125 144.27099609 C457.25828782 144.29244508 460.75766631 144.33910843 464.2578125 144.390625 C465.34240753 144.39185364 466.42700256 144.39308228 467.54446411 144.39434814 C473.66499714 144.51260006 477.34211861 144.90557899 482 149 C485.96070386 153.51276392 485.45100248 158.61079884 485.43359375 164.3125 C485.4388356 165.31780762 485.44407745 166.32311523 485.44947815 167.35888672 C485.45589511 169.48713256 485.45456559 171.61541388 485.44604492 173.74365234 C485.43760161 176.96127695 485.46619342 180.17708494 485.49804688 183.39453125 C485.53501891 194.27938254 485.31655347 203.85222577 481 214 C480.46366943 215.34336426 480.46366943 215.34336426 479.91650391 216.71386719 C473.77132922 231.45615659 459.30855126 242.07514665 445 248 C435.09846279 250.90495749 425.37065215 251.43135068 415.13623047 251.38095093 C413.58319713 251.38441588 412.03016625 251.38918602 410.47714043 251.39513266 C406.24873989 251.40755739 402.02054471 251.40151155 397.79214382 251.39217401 C393.21674201 251.38534857 388.64137397 251.39588196 384.065979 251.40411377 C375.11824994 251.41741621 366.1705966 251.41458896 357.22286463 251.40587585 C349.94737791 251.39908593 342.67191233 251.39818823 335.39642334 251.4014473 C334.35882649 251.401907 333.32122965 251.40236669 332.25219047 251.40284032 C330.14398018 251.40379955 328.03576989 251.40477219 325.92755961 251.4057581 C306.18368694 251.41430177 286.43985613 251.40449393 266.69599032 251.388357 C249.77451947 251.37495476 232.85311037 251.37728314 215.93164062 251.39111328 C196.25583188 251.40718718 176.58005977 251.41347789 156.90424538 251.40427649 C154.80402248 251.4033209 152.70379957 251.40237778 150.60357666 251.4014473 C149.05376817 251.40075306 149.05376817 251.40075306 147.47265041 251.40004479 C140.21041599 251.39746033 132.94820492 251.40181415 125.68597412 251.40888596 C116.82928416 251.41732128 107.97267391 251.41497819 99.11599302 251.39904372 C94.60182276 251.39118831 90.08778515 251.38802257 85.57361603 251.39799118 C81.43333678 251.40699549 77.29331192 251.40191184 73.15305543 251.38605852 C71.66333141 251.38273482 70.17358546 251.38434976 68.6838758 251.39168589 C49.20260335 251.48018808 31.27562623 247.13094082 17 233 C2.37343771 216.26383738 -0.47268257 198.89310257 -0.34057617 177.44018555 C-0.33972839 175.49740614 -0.34020799 173.55462578 -0.34190369 171.61184692 C-0.34275916 166.3750947 -0.32520637 161.13855154 -0.30418181 155.9018476 C-0.28533989 150.41527368 -0.28365867 144.92869418 -0.28010559 139.4420929 C-0.27080711 129.06914314 -0.24622323 118.69628902 -0.21605712 108.32338125 C-0.18244449 96.50711494 -0.16600988 84.6908439 -0.15097082 72.87454164 C-0.11967161 48.58297488 -0.0669541 24.29149282 0 0 Z " fill="#FFFFFF" transform="translate(241,492)"/>
<path d="M0 0 C18.47604817 16.20578866 31.00489267 35.67882998 36.98828125 59.62109375 C37.17302002 60.35191162 37.35775879 61.08272949 37.5480957 61.83569336 C43.04645116 86.00631636 38.75506167 111.60654273 27.98828125 133.62109375 C49.57830275 154.05931391 49.57830275 154.05931391 71.73828125 173.87109375 C73.15865495 175.11687985 74.5745363 176.36779025 75.98828125 177.62109375 C76.84873047 178.3797876 76.84873047 178.3797876 77.7265625 179.15380859 C79.74271909 180.94218798 81.74132144 182.74881908 83.73828125 184.55859375 C84.38893555 185.1319043 85.03958984 185.70521484 85.70996094 186.29589844 C91.34302243 191.45103852 95.5667333 197.63162458 96.2265625 205.44140625 C96.451571 215.4602057 94.58973816 222.56943184 87.76953125 230.05078125 C80.81412134 236.1825242 73.49259291 238.05182379 64.4140625 237.9609375 C56.59510364 237.18528252 50.98114624 233.21817506 45.79980469 227.52954102 C44.03848848 225.67398727 42.21244394 224.01813461 40.26953125 222.35546875 C36.1152595 218.75611693 32.10565077 215.02318844 28.11328125 211.24609375 C23.7763476 207.16028769 19.43618697 203.08651478 14.98828125 199.12109375 C10.44334249 195.06560993 5.99395272 190.91230886 1.55078125 186.74609375 C0.85146484 186.09060547 0.15214844 185.43511719 -0.56835938 184.75976562 C-5.83646272 179.81031829 -5.83646272 179.81031829 -7.59228516 177.91455078 C-8.95694502 176.37245069 -8.95694502 176.37245069 -11.1640625 176.66796875 C-14.34889934 177.7339498 -17.20575257 179.1296795 -20.19213867 180.65625 C-46.54277818 194.0948871 -75.02001886 195.94924165 -103.07421875 186.99609375 C-130.60023046 177.63606458 -153.19760954 157.15484389 -166.37231445 131.40112305 C-172.48277679 118.79636428 -176.71372635 104.69059199 -177.01171875 90.62109375 C-177.05039062 89.63496094 -177.0890625 88.64882812 -177.12890625 87.6328125 C-177.82423439 55.99538202 -165.84875207 29.90954276 -145.01171875 6.62109375 C-142.49565506 4.05399429 -139.85755228 1.81465643 -137.01171875 -0.37890625 C-135.99464844 -1.17039063 -134.97757813 -1.961875 -133.9296875 -2.77734375 C-94.23014692 -32.83361674 -38.53708668 -31.38789398 0 0 Z M-124.9140625 38.94140625 C-137.34488921 54.82138227 -141.89080112 74.38168467 -139.5859375 94.30078125 C-137.15178095 108.42784933 -131.84676249 121.06035746 -122.01171875 131.62109375 C-121.42003906 132.30300781 -120.82835937 132.98492187 -120.21875 133.6875 C-107.87308455 147.13874744 -90.19185417 154.44368712 -72.19140625 155.83984375 C-52.21427209 156.47911204 -34.41448422 148.80815834 -19.38671875 136.05859375 C-7.0964932 124.47066681 1.6126726 107.32808445 2.32421875 90.3359375 C2.66128957 68.95312269 -1.75255744 50.88188066 -16.28125 34.375 C-30.42471809 20.11012875 -48.51807643 12.34526489 -68.51171875 12.12109375 C-90.91688852 12.39449286 -110.26816323 21.94493055 -124.9140625 38.94140625 Z " fill="#FFFFFF" transform="translate(666.01171875,144.37890625)"/>
<path d="M0 0 C0.33 0.66 0.66 1.32 1 2 C0.6376123 2.46784912 0.27522461 2.93569824 -0.09814453 3.41772461 C-1.77685179 5.58861409 -3.45093202 7.76303126 -5.125 9.9375 C-5.97964844 11.04061523 -5.97964844 11.04061523 -6.8515625 12.16601562 C-7.41875 12.90400391 -7.9859375 13.64199219 -8.5703125 14.40234375 C-9.08352051 15.06741943 -9.59672852 15.73249512 -10.12548828 16.41772461 C-12.05098052 18.80957922 -12.05098052 18.80957922 -12.76161957 21.18177795 C-14.12555113 24.31009078 -15.2882446 25.8848584 -18 28 C-24.66379583 29.86261772 -32.02991786 29.19358024 -38.87646484 29.11352539 C-41.04482643 29.1208502 -43.21317773 29.13212823 -45.38150024 29.14706421 C-51.26574578 29.17638629 -57.14860327 29.15035936 -63.03276396 29.11447453 C-69.1827621 29.08635394 -75.3325666 29.10902196 -81.48257446 29.12632751 C-93.12734396 29.15136507 -104.77156595 29.13065509 -116.41628516 29.09355396 C-129.6737835 29.0535384 -142.93108633 29.06445347 -156.18861842 29.07967007 C-183.45924005 29.10982822 -210.72948209 29.07595119 -238 29 C-237.47599609 30.32064453 -237.47599609 30.32064453 -236.94140625 31.66796875 C-236.48636719 32.82941406 -236.03132813 33.99085938 -235.5625 35.1875 C-235.11003906 36.33605469 -234.65757812 37.48460937 -234.19140625 38.66796875 C-231.57980012 45.97190327 -231.65848341 53.22576895 -231.44580078 60.90795898 C-231.42483849 61.63416282 -231.40387619 62.36036665 -231.38227868 63.10857666 C-230.7420204 85.9546935 -230.85372051 108.81298349 -230.8656745 131.66586995 C-230.86824372 138.13014722 -230.865849 144.59442322 -230.86428833 151.05870056 C-230.86236934 162.55485496 -230.86542426 174.0510016 -230.87054767 185.54715478 C-230.87504834 195.97032374 -230.8742068 206.39348161 -230.86962891 216.81665039 C-230.86428493 228.98943315 -230.86227869 241.16220725 -230.86524117 253.3349914 C-230.86680043 259.75587795 -230.86700635 266.17675684 -230.86370468 272.5976429 C-230.86083056 278.6020796 -230.86279303 284.60649509 -230.86859894 290.61092949 C-230.86992707 292.81812886 -230.86953153 295.02533001 -230.86733627 297.23252869 C-230.864628 300.23004065 -230.86800134 303.22748336 -230.87301636 306.22499084 C-230.86967027 307.55155633 -230.86967027 307.55155633 -230.86625659 308.90492111 C-230.8858471 314.8858471 -230.8858471 314.8858471 -232 316 C-240.58 316 -249.16 316 -258 316 C-258 252.64 -258 189.28 -258 124 C-282.42 124 -306.84 124 -332 124 C-339.17986779 119.21342147 -339.17986779 119.21342147 -341 115 C-341.38768005 111.90466309 -341.38768005 111.90466309 -341.40405273 108.39648438 C-341.41673691 107.07741089 -341.42942108 105.7583374 -341.44248962 104.39929199 C-341.4404365 102.96410973 -341.43744708 101.52892855 -341.43359375 100.09375 C-341.43816097 98.60746015 -341.44346815 97.12117241 -341.44947815 95.6348877 C-341.45840684 92.51789791 -341.45599382 89.40116427 -341.44604492 86.28417969 C-341.43462838 82.3247612 -341.45465369 78.36624436 -341.48396206 74.40694427 C-341.50248763 71.33360323 -341.50199825 68.260471 -341.49632454 65.18708801 C-341.49617292 63.72970832 -341.50208308 62.27231299 -341.51461601 60.81498718 C-341.64557222 43.07266585 -336.62919141 29.32213433 -324.48828125 16.32421875 C-311.34889452 4.05116521 -296.06845103 0.69086125 -278.62971497 0.7215271 C-277.43200256 0.7157347 -276.23429015 0.7099423 -275.00028342 0.70397437 C-271.70724501 0.69000266 -268.41433142 0.68475117 -265.12126815 0.68332577 C-261.55835007 0.67960807 -257.99547769 0.66444101 -254.43258667 0.65071106 C-248.270048 0.62850836 -242.10752575 0.6134532 -235.94495583 0.60334396 C-227.03507634 0.5887175 -218.12525407 0.5631697 -209.21540829 0.53501268 C-194.75747163 0.48961655 -180.2995267 0.45297216 -165.84155273 0.421875 C-151.80247548 0.39165999 -137.76341841 0.35729621 -123.72436523 0.31738281 C-122.85803948 0.31492126 -121.99171372 0.31245972 -121.09913567 0.30992357 C-116.75274772 0.2975484 -112.40636001 0.28509198 -108.05997241 0.27259517 C-72.0400095 0.16913494 -36.0200225 0.07989631 0 0 Z " fill="#FFFFFF" transform="translate(499,137)"/>
<path d="M0 0 C0.8642081 -0.00465992 1.72841619 -0.00931984 2.61881241 -0.01412097 C5.52271413 -0.02609824 8.42615033 -0.01666493 11.33005619 -0.00736332 C13.42977196 -0.01153503 15.52948548 -0.01701165 17.6291948 -0.02368313 C23.4055702 -0.0381777 29.18180342 -0.03388047 34.95818675 -0.02651632 C41.18528096 -0.02179689 47.41234387 -0.03428361 53.63942814 -0.04453373 C65.13557935 -0.06075536 76.63166737 -0.06316209 88.12782465 -0.05822874 C98.7483422 -0.05367334 109.36884285 -0.05426852 119.98935986 -0.06006908 C121.41342538 -0.06082595 122.83749091 -0.06158193 124.26155644 -0.06233703 C126.40743608 -0.06348221 128.55331572 -0.06463209 130.69919535 -0.06579627 C150.65219976 -0.07650286 170.60519852 -0.08122487 190.55820465 -0.07332611 C191.68665952 -0.07288035 191.68665952 -0.07288035 192.83791146 -0.07242559 C198.94732971 -0.06997659 205.05674789 -0.06736504 211.16616607 -0.06474145 C234.99922965 -0.05463818 258.83222278 -0.0629953 282.66527653 -0.086236 C309.43674508 -0.11229979 336.20817122 -0.12515893 362.97965294 -0.11804825 C365.83339313 -0.11733218 368.68713332 -0.11665779 371.54087353 -0.1160078 C372.24354616 -0.115838 372.94621879 -0.11566819 373.67018453 -0.11549323 C384.28366608 -0.11318891 394.89710829 -0.12117354 405.51058102 -0.13429928 C417.57876371 -0.14919737 429.64682905 -0.14969622 441.71501785 -0.13222837 C447.87482405 -0.12369127 454.03445387 -0.12163489 460.19425106 -0.13687992 C465.8302653 -0.15065621 471.46595088 -0.14605501 477.10194577 -0.12664068 C479.14359922 -0.12285862 481.18527856 -0.12586562 483.22690909 -0.13625234 C485.99774093 -0.14934926 488.76742616 -0.13790409 491.53820801 -0.12025452 C492.33471566 -0.12990503 493.13122331 -0.13955554 493.95186755 -0.14949849 C499.50969384 -0.07658614 502.733249 1.23380449 507.33202457 4.38031673 C510.74684361 8.12560213 510.90288554 12.05364031 510.74999332 16.93891048 C510.04838523 21.03708862 508.42826971 22.62809883 505.33202457 25.38031673 C500.93925382 27.7188581 496.64642602 27.66250834 491.78709698 27.63758564 C490.92404273 27.64109171 490.06098847 27.64459779 489.17178106 27.64821011 C486.26587293 27.65754962 483.36016408 27.6525942 480.45424747 27.64774227 C478.35539599 27.65147724 476.25654591 27.65607814 474.15769804 27.66147292 C468.37909214 27.67373719 462.60054398 27.67343842 456.82192802 27.67108417 C450.59413918 27.67067687 444.36636907 27.68170677 438.13858891 27.6911993 C425.93339907 27.70782872 413.72823559 27.7133356 401.52303673 27.71442406 C391.60521056 27.71534276 381.68739067 27.7194574 371.76956654 27.72582531 C368.91587779 27.72762036 366.06218903 27.72939999 363.20850027 27.73117507 C362.14438318 27.73183821 362.14438318 27.73183821 361.05876879 27.73251475 C341.10183841 27.74482474 321.14491022 27.75271571 301.18797588 27.75182819 C300.05912199 27.75178146 300.05912199 27.75178146 298.90746296 27.75173378 C295.09302925 27.75156756 291.27859554 27.75136948 287.46416183 27.75116436 C286.70658562 27.75112447 285.94900941 27.75108458 285.16847635 27.75104348 C283.63647266 27.75096261 282.10446898 27.75087901 280.5724653 27.7507927 C256.7328539 27.74956698 232.89329938 27.7645836 209.05370426 27.79193783 C182.27748548 27.82264887 155.50130406 27.83987094 128.72506654 27.83801138 C125.87074908 27.83786212 123.01643161 27.83776471 120.16211414 27.83770275 C119.45929501 27.83767944 118.75647588 27.83765613 118.0323592 27.83763212 C106.71513642 27.83757054 95.39796296 27.85034999 84.08075484 27.86756728 C72.70999164 27.88450847 61.33932041 27.88616588 49.9685445 27.87334864 C43.80671649 27.86680104 37.64506752 27.86676642 31.48325634 27.88405514 C25.84535768 27.89971153 20.20778112 27.89699845 14.56989066 27.87948687 C12.52753198 27.87640056 10.4851497 27.88011026 8.44281884 27.89120702 C5.67103144 27.9052728 2.90038254 27.89478535 0.12863445 27.87809467 C-1.06655579 27.89299921 -1.06655579 27.89299921 -2.28589129 27.90820485 C-7.84469604 27.83721902 -11.07072623 26.53207177 -15.66797543 23.38031673 C-18.8804897 19.75328449 -19.19497195 16.28139971 -19.01563168 11.59516048 C-18.45772946 8.0408846 -17.05692432 6.02073393 -14.66797543 3.38031673 C-9.67587883 0.23897555 -5.70467569 -0.04811438 0 0 Z " fill="#FFFFFF" transform="translate(207.66797542572021,458.61968326568604)"/>
<path d="M0 0 C17.29906247 -0.20594122 17.29906247 -0.20594122 24 1 C24.495 1.99 24.495 1.99 25 3 C24.01 3.99 23.02 4.98 22 6 C21.67 9.3 21.34 12.6 21 16 C40.8 16 60.6 16 81 16 C81.0309375 25.6215625 81.0309375 25.6215625 81.0625 35.4375 C81.071604 37.46447021 81.08070801 39.49144043 81.09008789 41.57983398 C81.09300703 43.1769199 81.09555559 44.77400655 81.09765625 46.37109375 C81.10277222 47.20805786 81.10788818 48.04502197 81.11315918 48.90734863 C81.11346924 50.93858265 81.06240188 52.96972471 81 55 C79.0604886 56.9395114 76.1879288 56.13256629 73.61132812 56.13671875 C72.77021484 56.13285156 71.92910156 56.12898438 71.0625 56.125 C69.80663086 56.13080078 69.80663086 56.13080078 68.52539062 56.13671875 C67.72423828 56.13542969 66.92308594 56.13414062 66.09765625 56.1328125 C65.36039307 56.13168457 64.62312988 56.13055664 63.86352539 56.12939453 C62 56 62 56 60 55 C59.67 48.4 59.34 41.8 59 35 C27.32 35 -4.36 35 -37 35 C-37.33 41.6 -37.66 48.2 -38 55 C-41.28144519 56.64072259 -44.89789996 56.14274434 -48.5 56.125 C-49.28503906 56.12886719 -50.07007813 56.13273437 -50.87890625 56.13671875 C-56.74669213 56.12665394 -56.74669213 56.12665394 -59 55 C-59.02464849 49.60653012 -59.04283531 44.21309275 -59.05493164 38.81958008 C-59.05997231 36.98331125 -59.06680477 35.14704646 -59.07543945 33.31079102 C-59.08751672 30.67723599 -59.09323081 28.04373384 -59.09765625 25.41015625 C-59.10281754 24.58411392 -59.10797882 23.75807159 -59.11329651 22.90699768 C-59.11349205 20.93763632 -59.06204152 18.96838386 -59 17 C-58 16 -58 16 -55.67784119 15.87974548 C-54.64969803 15.88196609 -53.62155487 15.88418671 -52.56225586 15.88647461 C-50.82056374 15.88658791 -50.82056374 15.88658791 -49.04368591 15.88670349 C-47.14840904 15.89444542 -47.14840904 15.89444542 -45.21484375 15.90234375 C-43.28591026 15.90446617 -43.28591026 15.90446617 -41.31800842 15.90663147 C-37.89356557 15.91045582 -34.46916491 15.92028538 -31.04473877 15.93133545 C-27.55261811 15.94155136 -24.06049066 15.94612947 -20.56835938 15.95117188 C-13.71222047 15.96190774 -6.8561166 15.97950386 0 16 C0 10.72 0 5.44 0 0 Z " fill="#FFFFFF" transform="translate(529,376)"/>
<path d="M0 0 C1.31250229 -0.00422974 1.31250229 -0.00422974 2.65151978 -0.00854492 C4.1024855 -0.00550858 4.1024855 -0.00550858 5.58276367 -0.00241089 C6.59567474 -0.00416321 7.60858582 -0.00591553 8.65219116 -0.00772095 C12.01838874 -0.01214158 15.38453426 -0.00920073 18.75073242 -0.00582886 C21.07861338 -0.00650184 23.40649428 -0.00747181 25.734375 -0.00872803 C30.62036811 -0.01020529 35.50634299 -0.00804954 40.39233398 -0.00338745 C46.67095898 0.00230985 52.94954124 -0.00096901 59.22816467 -0.00695992 C64.03723475 -0.01056477 68.84629461 -0.00942729 73.65536499 -0.00683212 C75.97114059 -0.00616264 78.28691711 -0.006992 80.60269165 -0.00931168 C83.83305334 -0.01183696 87.06334475 -0.00799935 90.29370117 -0.00241089 C91.26101166 -0.00443512 92.22832214 -0.00645935 93.22494507 -0.00854492 C94.09994659 -0.0057251 94.97494812 -0.00290527 95.87646484 0 C96.64117599 0.00037703 97.40588715 0.00075405 98.19377136 0.0011425 C99.93823242 0.12698364 99.93823242 0.12698364 100.93823242 1.12698364 C101.03798274 3.63834469 101.07705425 6.11601779 101.06323242 8.62698364 C101.06709961 9.32952271 101.0709668 10.03206177 101.07495117 10.75588989 C101.0648462 16.00036986 101.0648462 16.00036986 99.93823242 17.12698364 C97.72135248 17.28572319 95.49967944 17.37832201 93.27807617 17.44338989 C92.28137657 17.47456154 92.28137657 17.47456154 91.26454163 17.50636292 C89.13504699 17.57192022 87.00542574 17.63077149 84.87573242 17.68948364 C83.43496395 17.73266303 81.99420843 17.77627713 80.5534668 17.82034302 C77.01519202 17.92760757 73.47677373 18.02885735 69.93823242 18.12698364 C80.09283357 24.43639272 90.13033172 28.92551063 101.93823242 31.12698364 C102.64135742 32.88479614 102.64135742 32.88479614 102.93823242 35.12698364 C101.61010742 37.05667114 101.61010742 37.05667114 99.68823242 39.00198364 C96.64538697 42.24525604 94.67118268 45.04945362 92.93823242 49.12698364 C87.09451798 48.61996504 82.44632032 47.43410231 77.12573242 45.00198364 C76.43358643 44.69067505 75.74144043 44.37936646 75.02832031 44.05862427 C65.72652924 39.77063339 57.86730191 34.70396612 50.93823242 27.12698364 C49.96403605 26.14287178 48.98536916 25.1631495 48.00073242 24.18948364 C47.32010742 23.50885864 46.63948242 22.82823364 45.93823242 22.12698364 C45.53733398 22.61167114 45.13643555 23.09635864 44.72338867 23.59573364 C33.63703988 36.66807236 20.12760139 45.91136579 2.93823242 49.12698364 C-0.52783355 48.98341878 -1.63794552 48.58562876 -4.01098633 46.01760864 C-4.58461914 45.14620239 -5.15825195 44.27479614 -5.74926758 43.37698364 C-6.33063477 42.51588989 -6.91200195 41.65479614 -7.51098633 40.76760864 C-8.97681248 38.27164271 -10.07064265 35.84159183 -11.06176758 33.12698364 C-10.48322021 32.94635376 -9.90467285 32.76572388 -9.30859375 32.57962036 C8.08179923 27.78848577 8.08179923 27.78848577 22.93823242 18.12698364 C21.71922241 18.08939941 21.71922241 18.08939941 20.47558594 18.05105591 C16.8171249 17.93549246 13.15894714 17.8125878 9.50073242 17.68948364 C8.22133789 17.65016724 6.94194336 17.61085083 5.6237793 17.57034302 C4.40883789 17.52844849 3.19389648 17.48655396 1.94213867 17.44338989 C0.81622314 17.40673218 -0.30969238 17.37007446 -1.46972656 17.33230591 C-4.06176758 17.12698364 -4.06176758 17.12698364 -5.06176758 16.12698364 C-5.1615179 13.6156226 -5.20058941 11.1379495 -5.18676758 8.62698364 C-5.19063477 7.92444458 -5.19450195 7.22190552 -5.19848633 6.49807739 C-5.18597087 0.00255684 -5.18597087 0.00255684 0 0 Z " fill="#FFFFFF" transform="translate(349.061767578125,491.8730163574219)"/>
<path d="M0 0 C0.87454834 0.04713135 1.74909668 0.0942627 2.65014648 0.14282227 C3.59438477 0.19116211 4.53862305 0.23950195 5.51147461 0.28930664 C7.00130859 0.37341797 7.00130859 0.37341797 8.52124023 0.45922852 C9.51833008 0.51143555 10.51541992 0.56364258 11.54272461 0.61743164 C14.01501545 0.74755221 16.48694653 0.88253033 18.95874023 1.02172852 C19.45374023 2.01172852 19.45374023 2.01172852 19.95874023 3.02172852 C19.62874023 3.68172852 19.29874023 4.34172852 18.95874023 5.02172852 C18.29874023 5.02172852 17.63874023 5.02172852 16.95874023 5.02172852 C16.95874023 7.33172852 16.95874023 9.64172852 16.95874023 12.02172852 C23.55874023 12.02172852 30.15874023 12.02172852 36.95874023 12.02172852 C36.93811523 10.22735352 36.91749023 8.43297852 36.89624023 6.58422852 C36.87492804 4.73006729 36.88647522 2.87460353 36.95874023 1.02172852 C37.95874023 0.02172852 37.95874023 0.02172852 40 0 C40.87454834 0.04713135 41.74909668 0.0942627 42.65014648 0.14282227 C43.59438477 0.19116211 44.53862305 0.23950195 45.51147461 0.28930664 C47.00130859 0.37341797 47.00130859 0.37341797 48.52124023 0.45922852 C49.51833008 0.51143555 50.51541992 0.56364258 51.54272461 0.61743164 C54.01501545 0.74755221 56.48694653 0.88253033 58.95874023 1.02172852 C58.95874023 2.34172852 58.95874023 3.66172852 58.95874023 5.02172852 C58.62874023 5.35172852 58.29874023 5.68172852 57.95874023 6.02172852 C57.91793241 8.02131215 57.91619667 10.02218106 57.95874023 12.02172852 C58.58441895 12.0164917 59.21009766 12.01125488 59.85473633 12.00585938 C62.68106081 11.98511234 65.50736928 11.97207566 68.33374023 11.95922852 C69.81100586 11.94666016 69.81100586 11.94666016 71.31811523 11.93383789 C72.72963867 11.92900391 72.72963867 11.92900391 74.16967773 11.92407227 C75.47364502 11.91621704 75.47364502 11.91621704 76.80395508 11.90820312 C78.95874023 12.02172852 78.95874023 12.02172852 80.95874023 13.02172852 C80.95874023 18.30172852 80.95874023 23.58172852 80.95874023 29.02172852 C73.03874023 29.02172852 65.11874023 29.02172852 56.95874023 29.02172852 C57.45374023 33.97172852 57.45374023 33.97172852 57.95874023 39.02172852 C54.64618698 39.04856288 51.3338484 39.06848632 48.02124023 39.08422852 C47.07571289 39.09260742 46.13018555 39.10098633 45.15600586 39.10961914 C43.80732422 39.11445313 43.80732422 39.11445313 42.43139648 39.11938477 C41.18241577 39.12723999 41.18241577 39.12723999 39.90820312 39.13525391 C37.95874023 39.02172852 37.95874023 39.02172852 36.95874023 38.02172852 C36.95874023 35.05172852 36.95874023 32.08172852 36.95874023 29.02172852 C27.05874023 29.51672852 27.05874023 29.51672852 16.95874023 30.02172852 C16.95874023 32.66172852 16.95874023 35.30172852 16.95874023 38.02172852 C15.43664433 39.54382442 14.07663942 39.15132372 11.95874023 39.15454102 C11.15436523 39.15583008 10.34999023 39.15711914 9.52124023 39.15844727 C8.67561523 39.15458008 7.82999023 39.15071289 6.95874023 39.14672852 C6.11311523 39.1505957 5.26749023 39.15446289 4.39624023 39.15844727 C3.59186523 39.1571582 2.78749023 39.15586914 1.95874023 39.15454102 C1.21624023 39.15341309 0.47374023 39.15228516 -0.29125977 39.15112305 C-2.04125977 39.02172852 -2.04125977 39.02172852 -3.04125977 38.02172852 C-3.04125977 35.05172852 -3.04125977 32.08172852 -3.04125977 29.02172852 C-10.63125977 29.02172852 -18.22125977 29.02172852 -26.04125977 29.02172852 C-26.37125977 27.37172852 -26.70125977 25.72172852 -27.04125977 24.02172852 C-30.01125977 27.98172852 -32.98125977 31.94172852 -36.04125977 36.02172852 C-40.14574299 34.99560771 -41.37535543 34.13349431 -44.47875977 31.45922852 C-49.53029972 27.25338733 -54.83229202 24.07616314 -60.54907227 20.88110352 C-61.37149414 20.26750977 -62.19391602 19.65391602 -63.04125977 19.02172852 C-63.04125977 14.23874862 -61.37510427 12.32892672 -58.54125977 8.77172852 C-57.89737305 7.9402832 -57.89737305 7.9402832 -57.24047852 7.09204102 C-56.18262784 5.72858903 -55.11306195 4.37424079 -54.04125977 3.02172852 C-49.08775737 3.60108552 -45.3516846 5.83420061 -41.10375977 8.27172852 C-40.4134668 8.65458008 -39.72317383 9.03743164 -39.01196289 9.43188477 C-34.61266313 11.92551629 -30.83283498 14.67517387 -27.04125977 18.02172852 C-26.85563477 16.81516602 -26.85563477 16.81516602 -26.66625977 15.58422852 C-26.46000977 14.73860352 -26.25375977 13.89297852 -26.04125977 13.02172852 C-23.6406616 11.82142943 -22.14765327 11.90713109 -19.47094727 11.92407227 C-18.57504883 11.92729492 -17.67915039 11.93051758 -16.75610352 11.93383789 C-15.81895508 11.9422168 -14.88180664 11.9505957 -13.91625977 11.95922852 C-12.97137695 11.96374023 -12.02649414 11.96825195 -11.05297852 11.97290039 C-8.71567589 11.98470495 -6.37849915 12.00117093 -4.04125977 12.02172852 C-3.95038086 10.84803711 -3.95038086 10.84803711 -3.85766602 9.65063477 C-3.77387695 8.6387207 -3.69008789 7.62680664 -3.60375977 6.58422852 C-3.52254883 5.57489258 -3.44133789 4.56555664 -3.35766602 3.52563477 C-2.91607143 0.03104059 -2.91607143 0.03104059 0 0 Z " fill="#FFFFFF" transform="translate(369.041259765625,375.978271484375)"/>
<path d="M0 0 C11.97803894 -0.02254967 23.9560639 -0.0409143 35.93411922 -0.05181217 C41.49539411 -0.05704134 47.05665379 -0.06413958 52.61791992 -0.07543945 C57.98007419 -0.08626715 63.34221378 -0.09227658 68.70437813 -0.09487724 C70.75500278 -0.09673171 72.8056266 -0.10035272 74.85624504 -0.10573006 C77.71790203 -0.11293893 80.57949757 -0.11399101 83.44116211 -0.11352539 C84.72617111 -0.1189183 84.72617111 -0.1189183 86.03713989 -0.12442017 C91.88594784 -0.11405216 91.88594784 -0.11405216 93 1 C93 12.55 93 24.1 93 36 C62.31 36 31.62 36 0 36 C0 24.12 0 12.24 0 0 Z M19 15 C19 17.97 19 20.94 19 24 C24.61 24 30.22 24 36 24 C36 21.03 36 18.06 36 15 C30.39 15 24.78 15 19 15 Z M56 15 C56 17.97 56 20.94 56 24 C61.61 24 67.22 24 73 24 C73 21.03 73 18.06 73 15 C67.39 15 61.78 15 56 15 Z " fill="#FFFFFF" transform="translate(350,417)"/>
<path d="M0 0 C2.1328125 1.7421875 2.1328125 1.7421875 4.125 3.875 C5.11886719 4.92300781 5.11886719 4.92300781 6.1328125 5.9921875 C7.05707031 6.98605469 7.05707031 6.98605469 8 8 C8.52295654 8.40057617 9.04591309 8.80115234 9.5847168 9.21386719 C11.72028781 11.90902632 11.43781666 14.1818937 11.51171875 17.5859375 C11.52976059 18.25888855 11.54780243 18.9318396 11.56639099 19.62518311 C11.62193289 21.8750678 11.65527583 24.12466877 11.6875 26.375 C11.71988012 27.95948629 11.75293489 29.54395891 11.78662109 31.12841797 C12.04622466 44.45851822 12.09946966 57.79270211 12.125 71.125 C12.12776947 72.09507996 12.13053894 73.06515991 12.13339233 74.06463623 C12.13922751 76.85823374 12.13738983 79.65171458 12.1328125 82.4453125 C12.13478134 83.26384705 12.13675018 84.08238159 12.13877869 84.92572021 C12.11587685 90.73273255 11.5842952 96.15704795 11 102 C2.42 102 -6.16 102 -15 102 C-15.11283877 89.27421743 -15.20462275 76.54876561 -15.25906086 63.82259655 C-15.28518484 57.91368757 -15.32063467 52.00513777 -15.37719727 46.09643555 C-15.43141612 40.39707713 -15.46139941 34.69806475 -15.47438622 28.9984684 C-15.48364425 26.82105369 -15.50172256 24.64365849 -15.52865028 22.46639061 C-15.56480537 19.42272995 -15.56995095 16.38050981 -15.56762695 13.33666992 C-15.58560333 12.43108337 -15.60357971 11.52549683 -15.62210083 10.59246826 C-15.60297192 8.28611012 -15.55025744 6.23969437 -15 4 C-12.62077332 1.99458313 -12.62077332 1.99458313 -10 1 C-9.175 0.5875 -8.35 0.175 -7.5 -0.25 C-4.465224 -1.1604328 -3.02079608 -0.91621743 0 0 Z " fill="#FFFFFF" transform="translate(654,351)"/>
<path d="M0 0 C0.97582031 0.64066406 1.95164062 1.28132813 2.95703125 1.94140625 C4.06111328 2.68197266 4.06111328 2.68197266 5.1875 3.4375 C4.32431455 8.07190218 1.52622814 10.50445241 -1.75 13.6875 C-2.54760742 14.48994141 -2.54760742 14.48994141 -3.36132812 15.30859375 C-4.50280701 16.43535251 -5.66637278 17.54004437 -6.84765625 18.625 C-8.24587193 19.91480532 -9.59880903 21.25444445 -10.91796875 22.625 C-16.48673411 27.89477125 -21.13700543 29.26399636 -28.62983704 29.20159912 C-30.73427703 29.13994118 -32.83468751 29.03988775 -34.9375 28.9375 C-36.38531714 28.89728286 -37.83324294 28.86079664 -39.28125 28.828125 C-42.79396205 28.7408603 -46.30251581 28.60333607 -49.8125 28.4375 C-49.8125 27.1175 -49.8125 25.7975 -49.8125 24.4375 C-48.884375 24.4375 -47.95625 24.4375 -47 24.4375 C-41.18788927 23.33299125 -41.18788927 23.33299125 -31.8125 15.4375 C-48.9725 15.1075 -66.1325 14.7775 -83.8125 14.4375 C-83.8125 8.4975 -83.8125 2.5575 -83.8125 -3.5625 C-74.38091468 -3.71585063 -64.94928759 -3.8646497 -55.5175066 -4.0054636 C-51.13784115 -4.07103223 -46.75822517 -4.13858581 -42.37866211 -4.21069336 C-38.15122774 -4.28022284 -33.92374304 -4.34451517 -29.69617271 -4.40519524 C-28.08423667 -4.42924899 -26.47232753 -4.4551816 -24.86045265 -4.48303413 C-22.60077745 -4.5217577 -20.34109844 -4.55376706 -18.08129883 -4.58422852 C-16.79556473 -4.60421402 -15.50983063 -4.62419952 -14.18513489 -4.64479065 C-8.2955504 -4.50108766 -4.91247328 -3.25525338 0 0 Z " fill="#FFFFFF" transform="translate(580.8125,424.5625)"/>
<path d="M0 0 C5.589375 0.12375 11.17875 0.2475 16.9375 0.375 C16.9375 16.545 16.9375 32.715 16.9375 49.375 C10.3375 49.375 3.7375 49.375 -3.0625 49.375 C-3.0625 37.165 -3.0625 24.955 -3.0625 12.375 C-7.3525 15.345 -11.6425 18.315 -16.0625 21.375 C-20.0625 20.375 -20.0625 20.375 -21.73046875 18.23046875 C-22.23191406 17.35003906 -22.73335938 16.46960938 -23.25 15.5625 C-23.75917969 14.68980469 -24.26835937 13.81710937 -24.79296875 12.91796875 C-25.9115799 10.67730456 -26.51014652 8.79246813 -27.0625 6.375 C-19.09990883 -1.38207673 -10.34573837 -0.32379682 0 0 Z " fill="#FFFFFF" transform="translate(493.0625,491.625)"/>
<path d="M0 0 C0.79075928 0.00523682 1.58151855 0.01047363 2.39624023 0.01586914 C3.67724609 0.02070313 3.67724609 0.02070313 4.98413086 0.02563477 C5.88196289 0.03401367 6.77979492 0.04239258 7.70483398 0.05102539 C8.6065332 0.05553711 9.50823242 0.06004883 10.43725586 0.06469727 C12.67234712 0.07652315 14.90730835 0.09300319 17.14233398 0.11352539 C17.21687034 4.96985574 17.27111727 9.82584807 17.30712891 14.68261719 C17.32215204 16.33241583 17.34257658 17.98217497 17.36865234 19.63183594 C17.40532297 22.01255076 17.42212501 24.39273447 17.43530273 26.77368164 C17.45078659 27.50313492 17.46627045 28.2325882 17.48222351 28.98414612 C17.48387328 34.08211666 16.50935661 37.57835683 14.14233398 42.11352539 C6.80115363 49.26151679 -2.06100592 49.27070279 -11.73266602 49.17602539 C-12.61180664 49.17151367 -13.49094727 49.16700195 -14.39672852 49.16235352 C-16.55040404 49.15064876 -18.70404418 49.13271608 -20.85766602 49.11352539 C-21.83789311 46.67644701 -22.81688773 44.23888594 -23.79516602 41.80102539 C-24.07295898 41.11073242 -24.35075195 40.42043945 -24.63696289 39.70922852 C-25.77906729 36.86084766 -26.88696833 34.02561845 -27.85766602 31.11352539 C-19.49692083 30.01187426 -11.27293914 30.03147244 -2.85766602 30.11352539 C-2.86290283 29.24026611 -2.86813965 28.36700684 -2.87353516 27.46728516 C-2.89054353 24.23763267 -2.90309971 21.00800294 -2.91259766 17.77832031 C-2.91763681 16.37857311 -2.92446818 14.97883119 -2.93310547 13.57910156 C-2.94518921 11.57106762 -2.95036408 9.56299582 -2.95532227 7.55493164 C-2.96055908 6.34522705 -2.9657959 5.13552246 -2.97119141 3.88916016 C-2.81916861 0.17228458 -2.81916861 0.17228458 0 0 Z " fill="#FFFFFF" transform="translate(576.857666015625,491.886474609375)"/>
<path d="M0 0 C7.26 0 14.52 0 22 0 C20.08432831 6.38557229 18.33088327 11.93392699 15.4609375 17.80078125 C15.13461334 18.48504684 14.80828918 19.16931244 14.47207642 19.87431335 C13.44647785 22.02369629 12.41176345 24.16848287 11.375 26.3125 C10.33169422 28.47463301 9.29067043 30.63772627 8.25650024 32.804245 C7.61757185 34.14248788 6.97345984 35.47827254 6.32333374 36.81111145 C4.7098708 40.18743826 3.53378262 43.28866681 3 47 C-1.63107292 46.5004382 -4.39643859 45.39512242 -8.125 42.625 C-9.36636719 41.71621094 -9.36636719 41.71621094 -10.6328125 40.7890625 C-11.41398437 40.19867187 -12.19515625 39.60828125 -13 39 C-13.76054687 38.43023438 -14.52109375 37.86046875 -15.3046875 37.2734375 C-15.86414063 36.85320313 -16.42359375 36.43296875 -17 36 C-16.39954205 32.14745832 -15.24697392 29.19652741 -13.41796875 25.76171875 C-12.89783203 24.77623047 -12.37769531 23.79074219 -11.84179688 22.77539062 C-11.02291992 21.24688477 -11.02291992 21.24688477 -10.1875 19.6875 C-9.11790569 17.6708825 -8.04888435 15.65396099 -6.98046875 13.63671875 C-6.50504639 12.74686279 -6.02962402 11.85700684 -5.53979492 10.94018555 C-3.64340749 7.31909885 -1.82803469 3.65606938 0 0 Z " fill="#FFFFFF" transform="translate(318,492)"/>
<path d="M0 0 C4.88863475 0.65697068 8.96870688 2.65469977 13.375 4.75 C14.46941406 5.25273437 14.46941406 5.25273437 15.5859375 5.765625 C20.47098072 8.06857395 24.68853861 10.74649616 29 14 C28.44956657 18.20742262 27.06313359 20.72497013 24.5625 24.125 C23.94503906 24.97320312 23.32757813 25.82140625 22.69140625 26.6953125 C22.13324219 27.45585937 21.57507813 28.21640625 21 29 C20.34 29.99 19.68 30.98 19 32 C15.5058008 30.34529509 12.27870276 28.35767121 9 26.3125 C2.73386831 22.42212302 -3.61009476 18.68426969 -10 15 C-8.37815499 11.41486894 -6.20743761 8.41007677 -3.875 5.25 C-3.15054687 4.26515625 -2.42609375 3.2803125 -1.6796875 2.265625 C-1.12539063 1.51796875 -0.57109375 0.7703125 0 0 Z " fill="#FFFFFF" transform="translate(307,423)"/>
<path d="M0 0 C8.27155793 2.98386737 14.01755261 12.58546583 18.328125 19.83984375 C16.84346913 24.23442512 13.51491732 25.8907328 9.703125 28.08984375 C9.09210937 28.45335937 8.48109375 28.816875 7.8515625 29.19140625 C6.34918773 30.08344127 4.83935949 30.96290204 3.328125 31.83984375 C-0.5674316 28.16020715 -3.68600179 23.98566883 -6.87304688 19.70507812 C-8.96120345 16.93915822 -10.98084067 14.54116266 -13.48828125 12.1171875 C-15.671875 9.83984375 -15.671875 9.83984375 -15.671875 6.83984375 C-11.39353681 2.68287685 -6.07886601 -0.43572291 0 0 Z " fill="#FFFFFF" transform="translate(538.671875,491.16015625)"/>
<path d="M0 0 C7.26 0 14.52 0 22 0 C22 0.99 22 1.98 22 3 C14.74 3 7.48 3 0 3 C0 2.01 0 1.02 0 0 Z " fill="#FFFFFF" transform="translate(574,450)"/>
<path d="M0 0 C1.93742341 -0.02703381 3.87495479 -0.04641125 5.8125 -0.0625 C6.89144531 -0.07410156 7.97039062 -0.08570313 9.08203125 -0.09765625 C12 0 12 0 15 1 C15 1.66 15 2.32 15 3 C10.05 3 5.1 3 0 3 C0 2.01 0 1.02 0 0 Z " fill="#FFFFFF" transform="translate(494,450)"/>
<path d="M0 0 C2 1 2 1 2 1 Z " fill="#FFFFFF" transform="translate(325,707)"/>
<path d="M0 0 C2 1 2 1 2 1 Z " fill="#FFFFFF" transform="translate(395,515)"/>
<path d="" fill="#FFFFFF" transform="translate(0,0)"/>
<path d="" fill="#FFFFFF" transform="translate(0,0)"/>
<path d="" fill="#FFFFFF" transform="translate(0,0)"/>
<path d="" fill="#FFFFFF" transform="translate(0,0)"/>
<path d="" fill="#FFFFFF" transform="translate(0,0)"/>
<path d="" fill="#FFFFFF" transform="translate(0,0)"/>
<path d="" fill="#FFFFFF" transform="translate(0,0)"/>
<path d="" fill="#FFFFFF" transform="translate(0,0)"/>
<path d="" fill="#FFFFFF" transform="translate(0,0)"/>
<path d="" fill="#FFFFFF" transform="translate(0,0)"/>
<path d="" fill="#FFFFFF" transform="translate(0,0)"/>
<path d="" fill="#FFFFFF" transform="translate(0,0)"/>
<path d="" fill="#FFFFFF" transform="translate(0,0)"/>
<path d="" fill="#FFFFFF" transform="translate(0,0)"/>
<path d="" fill="#FFFFFF" transform="translate(0,0)"/>
<path d="" fill="#FFFFFF" transform="translate(0,0)"/>
<path d="" fill="#FFFFFF" transform="translate(0,0)"/>
<path d="" fill="#FFFFFF" transform="translate(0,0)"/>
<path d="" fill="#FFFFFF" transform="translate(0,0)"/>
<path d="" fill="#FFFFFF" transform="translate(0,0)"/>
<path d="" fill="#FFFFFF" transform="translate(0,0)"/>
<path d="" fill="#FFFFFF" transform="translate(0,0)"/>
<path d="" fill="#FFFFFF" transform="translate(0,0)"/>
<path d="" fill="#FFFFFF" transform="translate(0,0)"/>
<path d="" fill="#FFFFFF" transform="translate(0,0)"/>
<path d="" fill="#FFFFFF" transform="translate(0,0)"/>
<path d="" fill="#FFFFFF" transform="translate(0,0)"/>
<path d="" fill="#FFFFFF" transform="translate(0,0)"/>
<path d="" fill="#FFFFFF" transform="translate(0,0)"/>
<path d="" fill="#FFFFFF" transform="translate(0,0)"/>
<path d="" fill="#FFFFFF" transform="translate(0,0)"/>
<path d="" fill="#FFFFFF" transform="translate(0,0)"/>
<path d="" fill="#FFFFFF" transform="translate(0,0)"/>
<path d="" fill="#FFFFFF" transform="translate(0,0)"/>
<path d="" fill="#FFFFFF" transform="translate(0,0)"/>
<path d="" fill="#FFFFFF" transform="translate(0,0)"/>
<path d="" fill="#FFFFFF" transform="translate(0,0)"/>
<path d="" fill="#FFFFFF" transform="translate(0,0)"/>
<path d="" fill="#FFFFFF" transform="translate(0,0)"/>
<path d="" fill="#FFFFFF" transform="translate(0,0)"/>
<path d="" fill="#FFFFFF" transform="translate(0,0)"/>
<path d="" fill="#FFFFFF" transform="translate(0,0)"/>
<path d="" fill="#FFFFFF" transform="translate(0,0)"/>
<path d="" fill="#FFFFFF" transform="translate(0,0)"/>
<path d="" fill="#FFFFFF" transform="translate(0,0)"/>
<path d="" fill="#FFFFFF" transform="translate(0,0)"/>
<path d="" fill="#FFFFFF" transform="translate(0,0)"/>
<path d="" fill="#FFFFFF" transform="translate(0,0)"/>
<path d="" fill="#FFFFFF" transform="translate(0,0)"/>
<path d="" fill="#FFFFFF" transform="translate(0,0)"/>
<path d="" fill="#FFFFFF" transform="translate(0,0)"/>
<path d="" fill="#FFFFFF" transform="translate(0,0)"/>
<path d="" fill="#FFFFFF" transform="translate(0,0)"/>
<path d="" fill="#FFFFFF" transform="translate(0,0)"/>
<path d="" fill="#FFFFFF" transform="translate(0,0)"/>
<path d="" fill="#FFFFFF" transform="translate(0,0)"/>
<path d="" fill="#FFFFFF" transform="translate(0,0)"/>
<path d="" fill="#FFFFFF" transform="translate(0,0)"/>
<path d="" fill="#FFFFFF" transform="translate(0,0)"/>
<path d="" fill="#FFFFFF" transform="translate(0,0)"/>
<path d="" fill="#FFFFFF" transform="translate(0,0)"/>
<path d="" fill="#FFFFFF" transform="translate(0,0)"/>
<path d="" fill="#FFFFFF" transform="translate(0,0)"/>
<path d="" fill="#FFFFFF" transform="translate(0,0)"/>
<path d="" fill="#FFFFFF" transform="translate(0,0)"/>
<path d="" fill="#FFFFFF" transform="translate(0,0)"/>
<path d="" fill="#FFFFFF" transform="translate(0,0)"/>
<path d="" fill="#FFFFFF" transform="translate(0,0)"/>
<path d="" fill="#FFFFFF" transform="translate(0,0)"/>
<path d="" fill="#FFFFFF" transform="translate(0,0)"/>
<path d="" fill="#FFFFFF" transform="translate(0,0)"/>
<path d="" fill="#FFFFFF" transform="translate(0,0)"/>
<path d="" fill="#FFFFFF" transform="translate(0,0)"/>
<path d="" fill="#FFFFFF" transform="translate(0,0)"/>
<path d="" fill="#FFFFFF" transform="translate(0,0)"/>
<path d="" fill="#FFFFFF" transform="translate(0,0)"/>
<path d="" fill="#FFFFFF" transform="translate(0,0)"/>
<path d="" fill="#FFFFFF" transform="translate(0,0)"/>
<path d="" fill="#FFFFFF" transform="translate(0,0)"/>
<path d="" fill="#FFFFFF" transform="translate(0,0)"/>
<path d="" fill="#FFFFFF" transform="translate(0,0)"/>
<path d="" fill="#FFFFFF" transform="translate(0,0)"/>
<path d="" fill="#FFFFFF" transform="translate(0,0)"/>
<path d="" fill="#FFFFFF" transform="translate(0,0)"/>
<path d="" fill="#FFFFFF" transform="translate(0,0)"/>
<path d="" fill="#FFFFFF" transform="translate(0,0)"/>
<path d="" fill="#FFFFFF" transform="translate(0,0)"/>
<path d="" fill="#FFFFFF" transform="translate(0,0)"/>
<path d="" fill="#FFFFFF" transform="translate(0,0)"/>
<path d="" fill="#FFFFFF" transform="translate(0,0)"/>
<path d="" fill="#FFFFFF" transform="translate(0,0)"/>
<path d="" fill="#FFFFFF" transform="translate(0,0)"/>
<path d="" fill="#FFFFFF" transform="translate(0,0)"/>
<path d="" fill="#FFFFFF" transform="translate(0,0)"/>
<path d="" fill="#FFFFFF" transform="translate(0,0)"/>
<path d="" fill="#FFFFFF" transform="translate(0,0)"/>
<path d="" fill="#FFFFFF" transform="translate(0,0)"/>
<path d="" fill="#FFFFFF" transform="translate(0,0)"/>
<path d="" fill="#FFFFFF" transform="translate(0,0)"/>
<path d="" fill="#FFFFFF" transform="translate(0,0)"/>
<path d="" fill="#FFFFFF" transform="translate(0,0)"/>
<path d="" fill="#FFFFFF" transform="translate(0,0)"/>
<path d="" fill="#FFFFFF" transform="translate(0,0)"/>
<path d="" fill="#FFFFFF" transform="translate(0,0)"/>
<path d="" fill="#FFFFFF" transform="translate(0,0)"/>
<path d="" fill="#FFFFFF" transform="translate(0,0)"/>
<path d="" fill="#FFFFFF" transform="translate(0,0)"/>
<path d="" fill="#FFFFFF" transform="translate(0,0)"/>
<path d="" fill="#FFFFFF" transform="translate(0,0)"/>
<path d="" fill="#FFFFFF" transform="translate(0,0)"/>
<path d="" fill="#FFFFFF" transform="translate(0,0)"/>
<path d="" fill="#FFFFFF" transform="translate(0,0)"/>
<path d="" fill="#FFFFFF" transform="translate(0,0)"/>
<path d="" fill="#FFFFFF" transform="translate(0,0)"/>
<path d="" fill="#FFFFFF" transform="translate(0,0)"/>
<path d="" fill="#FFFFFF" transform="translate(0,0)"/>
<path d="" fill="#FFFFFF" transform="translate(0,0)"/>
<path d="" fill="#FFFFFF" transform="translate(0,0)"/>
<path d="" fill="#FFFFFF" transform="translate(0,0)"/>
<path d="" fill="#FFFFFF" transform="translate(0,0)"/>
<path d="" fill="#FFFFFF" transform="translate(0,0)"/>
<path d="" fill="#FFFFFF" transform="translate(0,0)"/>
<path d="" fill="#FFFFFF" transform="translate(0,0)"/>
<path d="" fill="#FFFFFF" transform="translate(0,0)"/>
<path d="" fill="#FFFFFF" transform="translate(0,0)"/>
<path d="" fill="#FFFFFF" transform="translate(0,0)"/>
<path d="" fill="#FFFFFF" transform="translate(0,0)"/>
<path d="" fill="#FFFFFF" transform="translate(0,0)"/>
<path d="" fill="#FFFFFF" transform="translate(0,0)"/>
<path d="" fill="#FFFFFF" transform="translate(0,0)"/>
<path d="" fill="#FFFFFF" transform="translate(0,0)"/>
<path d="" fill="#FFFFFF" transform="translate(0,0)"/>
<path d="" fill="#FFFFFF" transform="translate(0,0)"/>
<path d="" fill="#FFFFFF" transform="translate(0,0)"/>
<path d="" fill="#FFFFFF" transform="translate(0,0)"/>
<path d="" fill="#FFFFFF" transform="translate(0,0)"/>
<path d="" fill="#FFFFFF" transform="translate(0,0)"/>
<path d="" fill="#FFFFFF" transform="translate(0,0)"/>
<path d="" fill="#FFFFFF" transform="translate(0,0)"/>
<path d="" fill="#FFFFFF" transform="translate(0,0)"/>
<path d="" fill="#FFFFFF" transform="translate(0,0)"/>
<path d="" fill="#FFFFFF" transform="translate(0,0)"/>
<path d="" fill="#FFFFFF" transform="translate(0,0)"/>
<path d="" fill="#FFFFFF" transform="translate(0,0)"/>
<path d="" fill="#FFFFFF" transform="translate(0,0)"/>
<path d="" fill="#FFFFFF" transform="translate(0,0)"/>
<path d="" fill="#FFFFFF" transform="translate(0,0)"/>
<path d="" fill="#FFFFFF" transform="translate(0,0)"/>
<path d="" fill="#FFFFFF" transform="translate(0,0)"/>
<path d="" fill="#FFFFFF" transform="translate(0,0)"/>
<path d="" fill="#FFFFFF" transform="translate(0,0)"/>
<path d="" fill="#FFFFFF" transform="translate(0,0)"/>
<path d="" fill="#FFFFFF" transform="translate(0,0)"/>
<path d="" fill="#FFFFFF" transform="translate(0,0)"/>
<path d="" fill="#FFFFFF" transform="translate(0,0)"/>
<path d="" fill="#FFFFFF" transform="translate(0,0)"/>
<path d="" fill="#FFFFFF" transform="translate(0,0)"/>
<path d="" fill="#FFFFFF" transform="translate(0,0)"/>
<path d="" fill="#FFFFFF" transform="translate(0,0)"/>
<path d="" fill="#FFFFFF" transform="translate(0,0)"/>
<path d="" fill="#FFFFFF" transform="translate(0,0)"/>
<path d="" fill="#FFFFFF" transform="translate(0,0)"/>
<path d="" fill="#FFFFFF" transform="translate(0,0)"/>
<path d="" fill="#FFFFFF" transform="translate(0,0)"/>
<path d="" fill="#FFFFFF" transform="translate(0,0)"/>
<path d="" fill="#FFFFFF" transform="translate(0,0)"/>
<path d="" fill="#FFFFFF" transform="translate(0,0)"/>
<path d="" fill="#FFFFFF" transform="translate(0,0)"/>
<path d="" fill="#FFFFFF" transform="translate(0,0)"/>
<path d="" fill="#FFFFFF" transform="translate(0,0)"/>
<path d="" fill="#FFFFFF" transform="translate(0,0)"/>
<path d="" fill="#FFFFFF" transform="translate(0,0)"/>
<path d="" fill="#FFFFFF" transform="translate(0,0)"/>
<path d="" fill="#FFFFFF" transform="translate(0,0)"/>
<path d="" fill="#FFFFFF" transform="translate(0,0)"/>
<path d="" fill="#FFFFFF" transform="translate(0,0)"/>
<path d="" fill="#FFFFFF" transform="translate(0,0)"/>
<path d="" fill="#FFFFFF" transform="translate(0,0)"/>
<path d="" fill="#FFFFFF" transform="translate(0,0)"/>
<path d="" fill="#FFFFFF" transform="translate(0,0)"/>
<path d="" fill="#FFFFFF" transform="translate(0,0)"/>
<path d="" fill="#FFFFFF" transform="translate(0,0)"/>
<path d="" fill="#FFFFFF" transform="translate(0,0)"/>
<path d="" fill="#FFFFFF" transform="translate(0,0)"/>
<path d="" fill="#FFFFFF" transform="translate(0,0)"/>
<path d="" fill="#FFFFFF" transform="translate(0,0)"/>
<path d="" fill="#FFFFFF" transform="translate(0,0)"/>
<path d="" fill="#FFFFFF" transform="translate(0,0)"/>
<path d="" fill="#FFFFFF" transform="translate(0,0)"/>
<path d="" fill="#FFFFFF" transform="translate(0,0)"/>
<path d="" fill="#FFFFFF" transform="translate(0,0)"/>
<path d="" fill="#FFFFFF" transform="translate(0,0)"/>
<path d="" fill="#FFFFFF" transform="translate(0,0)"/>
<path d="" fill="#FFFFFF" transform="translate(0,0)"/>
<path d="" fill="#FFFFFF" transform="translate(0,0)"/>
<path d="" fill="#FFFFFF" transform="translate(0,0)"/>
<path d="" fill="#FFFFFF" transform="translate(0,0)"/>
<path d="" fill="#FFFFFF" transform="translate(0,0)"/>
<path d="" fill="#FFFFFF" transform="translate(0,0)"/>
<path d="" fill="#FFFFFF" transform="translate(0,0)"/>
<path d="" fill="#FFFFFF" transform="translate(0,0)"/>
<path d="" fill="#FFFFFF" transform="translate(0,0)"/>
<path d="" fill="#FFFFFF" transform="translate(0,0)"/>
<path d="" fill="#FFFFFF" transform="translate(0,0)"/>
<path d="" fill="#FFFFFF" transform="translate(0,0)"/>
<path d="" fill="#FFFFFF" transform="translate(0,0)"/>
<path d="" fill="#FFFFFF" transform="translate(0,0)"/>
<path d="" fill="#FFFFFF" transform="translate(0,0)"/>
<path d="" fill="#FFFFFF" transform="translate(0,0)"/>
<path d="" fill="#FFFFFF" transform="translate(0,0)"/>
<path d="" fill="#FFFFFF" transform="translate(0,0)"/>
<path d="" fill="#FFFFFF" transform="translate(0,0)"/>
<path d="" fill="#FFFFFF" transform="translate(0,0)"/>
<path d="" fill="#FFFFFF" transform="translate(0,0)"/>
<path d="" fill="#FFFFFF" transform="translate(0,0)"/>
<path d="" fill="#FFFFFF" transform="translate(0,0)"/>
<path d="" fill="#FFFFFF" transform="translate(0,0)"/>
<path d="" fill="#FFFFFF" transform="translate(0,0)"/>
<path d="" fill="#FFFFFF" transform="translate(0,0)"/>
<path d="" fill="#FFFFFF" transform="translate(0,0)"/>
<path d="" fill="#FFFFFF" transform="translate(0,0)"/>
<path d="" fill="#FFFFFF" transform="translate(0,0)"/>
<path d="" fill="#FFFFFF" transform="translate(0,0)"/>
<path d="" fill="#FFFFFF" transform="translate(0,0)"/>
<path d="" fill="#FFFFFF" transform="translate(0,0)"/>
<path d="" fill="#FFFFFF" transform="translate(0,0)"/>
<path d="" fill="#FFFFFF" transform="translate(0,0)"/>
<path d="" fill="#FFFFFF" transform="translate(0,0)"/>
<path d="" fill="#FFFFFF" transform="translate(0,0)"/>
<path d="" fill="#FFFFFF" transform="translate(0,0)"/>
<path d="" fill="#FFFFFF" transform="translate(0,0)"/>
<path d="" fill="#FFFFFF" transform="translate(0,0)"/>
<path d="" fill="#FFFFFF" transform="translate(0,0)"/>
<path d="" fill="#FFFFFF" transform="translate(0,0)"/>
<path d="" fill="#FFFFFF" transform="translate(0,0)"/>
<path d="" fill="#FFFFFF" transform="translate(0,0)"/>
<path d="" fill="#FFFFFF" transform="translate(0,0)"/>
<path d="" fill="#FFFFFF" transform="translate(0,0)"/>
<path d="" fill="#FFFFFF" transform="translate(0,0)"/>
<path d="" fill="#FFFFFF" transform="translate(0,0)"/>
<path d="" fill="#FFFFFF" transform="translate(0,0)"/>
<path d="" fill="#FFFFFF" transform="translate(0,0)"/>
<path d="" fill="#FFFFFF" transform="translate(0,0)"/>
<path d="" fill="#FFFFFF" transform="translate(0,0)"/>
<path d="" fill="#FFFFFF" transform="translate(0,0)"/>
<path d="" fill="#FFFFFF" transform="translate(0,0)"/>
<path d="" fill="#FFFFFF" transform="translate(0,0)"/>
<path d="" fill="#FFFFFF" transform="translate(0,0)"/>
<path d="" fill="#FFFFFF" transform="translate(0,0)"/>
<path d="" fill="#FFFFFF" transform="translate(0,0)"/>
<path d="" fill="#FFFFFF" transform="translate(0,0)"/>
<path d="" fill="#FFFFFF" transform="translate(0,0)"/>
<path d="" fill="#FFFFFF" transform="translate(0,0)"/>
<path d="" fill="#FFFFFF" transform="translate(0,0)"/>
<path d="" fill="#FFFFFF" transform="translate(0,0)"/>
<path d="" fill="#FFFFFF" transform="translate(0,0)"/>
<path d="" fill="#FFFFFF" transform="translate(0,0)"/>
<path d="" fill="#FFFFFF" transform="translate(0,0)"/>
<path d="" fill="#FFFFFF" transform="translate(0,0)"/>
<path d="" fill="#FFFFFF" transform="translate(0,0)"/>
<path d="" fill="#FFFFFF" transform="translate(0,0)"/>
<path d="" fill="#FFFFFF" transform="translate(0,0)"/>
<path d="" fill="#FFFFFF" transform="translate(0,0)"/>
<path d="" fill="#FFFFFF" transform="translate(0,0)"/>
<path d="" fill="#FFFFFF" transform="translate(0,0)"/>
<path d="" fill="#FFFFFF" transform="translate(0,0)"/>
<path d="" fill="#FFFFFF" transform="translate(0,0)"/>
<path d="" fill="#FFFFFF" transform="translate(0,0)"/>
<path d="" fill="#FFFFFF" transform="translate(0,0)"/>
<path d="" fill="#FFFFFF" transform="translate(0,0)"/>
<path d="" fill="#FFFFFF" transform="translate(0,0)"/>
<path d="" fill="#FFFFFF" transform="translate(0,0)"/>
<path d="" fill="#FFFFFF" transform="translate(0,0)"/>
<path d="" fill="#FFFFFF" transform="translate(0,0)"/>
<path d="" fill="#FFFFFF" transform="translate(0,0)"/>
<path d="" fill="#FFFFFF" transform="translate(0,0)"/>
<path d="" fill="#FFFFFF" transform="translate(0,0)"/>
<path d="" fill="#FFFFFF" transform="translate(0,0)"/>
<path d="" fill="#FFFFFF" transform="translate(0,0)"/>
<path d="" fill="#FFFFFF" transform="translate(0,0)"/>
<path d="" fill="#FFFFFF" transform="translate(0,0)"/>
<path d="" fill="#FFFFFF" transform="translate(0,0)"/>
<path d="" fill="#FFFFFF" transform="translate(0,0)"/>
<path d="" fill="#FFFFFF" transform="translate(0,0)"/>
<path d="" fill="#FFFFFF" transform="translate(0,0)"/>
<path d="" fill="#FFFFFF" transform="translate(0,0)"/>
<path d="" fill="#FFFFFF" transform="translate(0,0)"/>
<path d="" fill="#FFFFFF" transform="translate(0,0)"/>
<path d="" fill="#FFFFFF" transform="translate(0,0)"/>
<path d="" fill="#FFFFFF" transform="translate(0,0)"/>
<path d="" fill="#FFFFFF" transform="translate(0,0)"/>
<path d="" fill="#FFFFFF" transform="translate(0,0)"/>
<path d="" fill="#FFFFFF" transform="translate(0,0)"/>
<path d="" fill="#FFFFFF" transform="translate(0,0)"/>
<path d="" fill="#FFFFFF" transform="translate(0,0)"/>
<path d="" fill="#FFFFFF" transform="translate(0,0)"/>
<path d="" fill="#FFFFFF" transform="translate(0,0)"/>
<path d="" fill="#FFFFFF" transform="translate(0,0)"/>
<path d="" fill="#FFFFFF" transform="translate(0,0)"/>
<path d="" fill="#FFFFFF" transform="translate(0,0)"/>
<path d="" fill="#FFFFFF" transform="translate(0,0)"/>
<path d="" fill="#FFFFFF" transform="translate(0,0)"/>
<path d="" fill="#FFFFFF" transform="translate(0,0)"/>
<path d="" fill="#FFFFFF" transform="translate(0,0)"/>
<path d="" fill="#FFFFFF" transform="translate(0,0)"/>
<path d="" fill="#FFFFFF" transform="translate(0,0)"/>
<path d="" fill="#FFFFFF" transform="translate(0,0)"/>
<path d="" fill="#FFFFFF" transform="translate(0,0)"/>
<path d="" fill="#FFFFFF" transform="translate(0,0)"/>
<path d="" fill="#FFFFFF" transform="translate(0,0)"/>
<path d="" fill="#FFFFFF" transform="translate(0,0)"/>
<path d="" fill="#FFFFFF" transform="translate(0,0)"/>
<path d="" fill="#FFFFFF" transform="translate(0,0)"/>
<path d="" fill="#FFFFFF" transform="translate(0,0)"/>
<path d="" fill="#FFFFFF" transform="translate(0,0)"/>
<path d="" fill="#FFFFFF" transform="translate(0,0)"/>
<path d="" fill="#FFFFFF" transform="translate(0,0)"/>
<path d="" fill="#FFFFFF" transform="translate(0,0)"/>
<path d="" fill="#FFFFFF" transform="translate(0,0)"/>
<path d="" fill="#FFFFFF" transform="translate(0,0)"/>
<path d="" fill="#FFFFFF" transform="translate(0,0)"/>
<path d="" fill="#FFFFFF" transform="translate(0,0)"/>
<path d="" fill="#FFFFFF" transform="translate(0,0)"/>
<path d="" fill="#FFFFFF" transform="translate(0,0)"/>
<path d="" fill="#FFFFFF" transform="translate(0,0)"/>
<path d="" fill="#FFFFFF" transform="translate(0,0)"/>
<path d="" fill="#FFFFFF" transform="translate(0,0)"/>
<path d="" fill="#FFFFFF" transform="translate(0,0)"/>
<path d="" fill="#FFFFFF" transform="translate(0,0)"/>
<path d="" fill="#FFFFFF" transform="translate(0,0)"/>
<path d="" fill="#FFFFFF" transform="translate(0,0)"/>
<path d="" fill="#FFFFFF" transform="translate(0,0)"/>
<path d="" fill="#FFFFFF" transform="translate(0,0)"/>
<path d="" fill="#FFFFFF" transform="translate(0,0)"/>
<path d="" fill="#FFFFFF" transform="translate(0,0)"/>
<path d="" fill="#FFFFFF" transform="translate(0,0)"/>
<path d="" fill="#FFFFFF" transform="translate(0,0)"/>
<path d="" fill="#FFFFFF" transform="translate(0,0)"/>
<path d="" fill="#FFFFFF" transform="translate(0,0)"/>
<path d="" fill="#FFFFFF" transform="translate(0,0)"/>
<path d="" fill="#FFFFFF" transform="translate(0,0)"/>
<path d="" fill="#FFFFFF" transform="translate(0,0)"/>
<path d="" fill="#FFFFFF" transform="translate(0,0)"/>
<path d="" fill="#FFFFFF" transform="translate(0,0)"/>
<path d="" fill="#FFFFFF" transform="translate(0,0)"/>
<path d="" fill="#FFFFFF" transform="translate(0,0)"/>
<path d="" fill="#FFFFFF" transform="translate(0,0)"/>
<path d="" fill="#FFFFFF" transform="translate(0,0)"/>
<path d="" fill="#FFFFFF" transform="translate(0,0)"/>
<path d="" fill="#FFFFFF" transform="translate(0,0)"/>
<path d="" fill="#FFFFFF" transform="translate(0,0)"/>
<path d="" fill="#FFFFFF" transform="translate(0,0)"/>
<path d="" fill="#FFFFFF" transform="translate(0,0)"/>
<path d="" fill="#FFFFFF" transform="translate(0,0)"/>
<path d="" fill="#FFFFFF" transform="translate(0,0)"/>
<path d="" fill="#FFFFFF" transform="translate(0,0)"/>
<path d="" fill="#FFFFFF" transform="translate(0,0)"/>
<path d="" fill="#FFFFFF" transform="translate(0,0)"/>
<path d="" fill="#FFFFFF" transform="translate(0,0)"/>
<path d="" fill="#FFFFFF" transform="translate(0,0)"/>
<path d="" fill="#FFFFFF" transform="translate(0,0)"/>
<path d="" fill="#FFFFFF" transform="translate(0,0)"/>
<path d="" fill="#FFFFFF" transform="translate(0,0)"/>
<path d="" fill="#FFFFFF" transform="translate(0,0)"/>
<path d="" fill="#FFFFFF" transform="translate(0,0)"/>
<path d="" fill="#FFFFFF" transform="translate(0,0)"/>
<path d="" fill="#FFFFFF" transform="translate(0,0)"/>
<path d="" fill="#FFFFFF" transform="translate(0,0)"/>
<path d="" fill="#FFFFFF" transform="translate(0,0)"/>
<path d="" fill="#FFFFFF" transform="translate(0,0)"/>
<path d="" fill="#FFFFFF" transform="translate(0,0)"/>
<path d="" fill="#FFFFFF" transform="translate(0,0)"/>
<path d="" fill="#FFFFFF" transform="translate(0,0)"/>
<path d="" fill="#FFFFFF" transform="translate(0,0)"/>
<path d="" fill="#FFFFFF" transform="translate(0,0)"/>
<path d="" fill="#FFFFFF" transform="translate(0,0)"/>
<path d="" fill="#FFFFFF" transform="translate(0,0)"/>
<path d="" fill="#FFFFFF" transform="translate(0,0)"/>
<path d="" fill="#FFFFFF" transform="translate(0,0)"/>
<path d="" fill="#FFFFFF" transform="translate(0,0)"/>
<path d="" fill="#FFFFFF" transform="translate(0,0)"/>
<path d="" fill="#FFFFFF" transform="translate(0,0)"/>
<path d="" fill="#FFFFFF" transform="translate(0,0)"/>
<path d="" fill="#FFFFFF" transform="translate(0,0)"/>
<path d="" fill="#FFFFFF" transform="translate(0,0)"/>
<path d="" fill="#FFFFFF" transform="translate(0,0)"/>
<path d="" fill="#FFFFFF" transform="translate(0,0)"/>
<path d="" fill="#FFFFFF" transform="translate(0,0)"/>
<path d="" fill="#FFFFFF" transform="translate(0,0)"/>
<path d="" fill="#FFFFFF" transform="translate(0,0)"/>
<path d="" fill="#FFFFFF" transform="translate(0,0)"/>
<path d="" fill="#FFFFFF" transform="translate(0,0)"/>
<path d="" fill="#FFFFFF" transform="translate(0,0)"/>
<path d="" fill="#FFFFFF" transform="translate(0,0)"/>
<path d="" fill="#FFFFFF" transform="translate(0,0)"/>
<path d="" fill="#FFFFFF" transform="translate(0,0)"/>
<path d="" fill="#FFFFFF" transform="translate(0,0)"/>
<path d="" fill="#FFFFFF" transform="translate(0,0)"/>
<path d="" fill="#FFFFFF" transform="translate(0,0)"/>
<path d="" fill="#FFFFFF" transform="translate(0,0)"/>
<path d="" fill="#FFFFFF" transform="translate(0,0)"/>
<path d="" fill="#FFFFFF" transform="translate(0,0)"/>
<path d="" fill="#FFFFFF" transform="translate(0,0)"/>
<path d="" fill="#FFFFFF" transform="translate(0,0)"/>
<path d="" fill="#FFFFFF" transform="translate(0,0)"/>
<path d="" fill="#FFFFFF" transform="translate(0,0)"/>
<path d="" fill="#FFFFFF" transform="translate(0,0)"/>
<path d="" fill="#FFFFFF" transform="translate(0,0)"/>
<path d="" fill="#FFFFFF" transform="translate(0,0)"/>
<path d="" fill="#FFFFFF" transform="translate(0,0)"/>
<path d="" fill="#FFFFFF" transform="translate(0,0)"/>
<path d="" fill="#FFFFFF" transform="translate(0,0)"/>
<path d="" fill="#FFFFFF" transform="translate(0,0)"/>
<path d="" fill="#FFFFFF" transform="translate(0,0)"/>
<path d="" fill="#FFFFFF" transform="translate(0,0)"/>
<path d="" fill="#FFFFFF" transform="translate(0,0)"/>
<path d="" fill="#FFFFFF" transform="translate(0,0)"/>
<path d="" fill="#FFFFFF" transform="translate(0,0)"/>
<path d="" fill="#FFFFFF" transform="translate(0,0)"/>
<path d="" fill="#FFFFFF" transform="translate(0,0)"/>
<path d="" fill="#FFFFFF" transform="translate(0,0)"/>
<path d="" fill="#FFFFFF" transform="translate(0,0)"/>
<path d="" fill="#FFFFFF" transform="translate(0,0)"/>
<path d="" fill="#FFFFFF" transform="translate(0,0)"/>
<path d="" fill="#FFFFFF" transform="translate(0,0)"/>
<path d="" fill="#FFFFFF" transform="translate(0,0)"/>
<path d="" fill="#FFFFFF" transform="translate(0,0)"/>
<path d="" fill="#FFFFFF" transform="translate(0,0)"/>
<path d="" fill="#FFFFFF" transform="translate(0,0)"/>
<path d="" fill="#FFFFFF" transform="translate(0,0)"/>
<path d="" fill="#FFFFFF" transform="translate(0,0)"/>
<path d="" fill="#FFFFFF" transform="translate(0,0)"/>
<path d="" fill="#FFFFFF" transform="translate(0,0)"/>
<path d="" fill="#FFFFFF" transform="translate(0,0)"/>
<path d="" fill="#FFFFFF" transform="translate(0,0)"/>
<path d="" fill="#FFFFFF" transform="translate(0,0)"/>
<path d="" fill="#FFFFFF" transform="translate(0,0)"/>
<path d="" fill="#FFFFFF" transform="translate(0,0)"/>
<path d="" fill="#FFFFFF" transform="translate(0,0)"/>
<path d="" fill="#FFFFFF" transform="translate(0,0)"/>
<path d="" fill="#FFFFFF" transform="translate(0,0)"/>
<path d="" fill="#FFFFFF" transform="translate(0,0)"/>
<path d="" fill="#FFFFFF" transform="translate(0,0)"/>
<path d="" fill="#FFFFFF" transform="translate(0,0)"/>
<path d="" fill="#FFFFFF" transform="translate(0,0)"/>
<path d="" fill="#FFFFFF" transform="translate(0,0)"/>
<path d="" fill="#FFFFFF" transform="translate(0,0)"/>
<path d="" fill="#FFFFFF" transform="translate(0,0)"/>
<path d="" fill="#FFFFFF" transform="translate(0,0)"/>
<path d="" fill="#FFFFFF" transform="translate(0,0)"/>
<path d="" fill="#FFFFFF" transform="translate(0,0)"/>
<path d="" fill="#FFFFFF" transform="translate(0,0)"/>
<path d="" fill="#FFFFFF" transform="translate(0,0)"/>
<path d="" fill="#FFFFFF" transform="translate(0,0)"/>
<path d="" fill="#FFFFFF" transform="translate(0,0)"/>
<path d="" fill="#FFFFFF" transform="translate(0,0)"/>
<path d="" fill="#FFFFFF" transform="translate(0,0)"/>
<path d="" fill="#FFFFFF" transform="translate(0,0)"/>
<path d="" fill="#FFFFFF" transform="translate(0,0)"/>
<path d="" fill="#FFFFFF" transform="translate(0,0)"/>
<path d="" fill="#FFFFFF" transform="translate(0,0)"/>
<path d="" fill="#FFFFFF" transform="translate(0,0)"/>
<path d="" fill="#FFFFFF" transform="translate(0,0)"/>
<path d="" fill="#FFFFFF" transform="translate(0,0)"/>
<path d="" fill="#FFFFFF" transform="translate(0,0)"/>
<path d="" fill="#FFFFFF" transform="translate(0,0)"/>
<path d="" fill="#FFFFFF" transform="translate(0,0)"/>
<path d="" fill="#FFFFFF" transform="translate(0,0)"/>
<path d="" fill="#FFFFFF" transform="translate(0,0)"/>
<path d="" fill="#FFFFFF" transform="translate(0,0)"/>
<path d="" fill="#FFFFFF" transform="translate(0,0)"/>
<path d="" fill="#FFFFFF" transform="translate(0,0)"/>
<path d="" fill="#FFFFFF" transform="translate(0,0)"/>
<path d="" fill="#FFFFFF" transform="translate(0,0)"/>
<path d="" fill="#FFFFFF" transform="translate(0,0)"/>
<path d="" fill="#FFFFFF" transform="translate(0,0)"/>
<path d="" fill="#FFFFFF" transform="translate(0,0)"/>
<path d="" fill="#FFFFFF" transform="translate(0,0)"/>
<path d="" fill="#FFFFFF" transform="translate(0,0)"/>
<path d="" fill="#FFFFFF" transform="translate(0,0)"/>
<path d="" fill="#FFFFFF" transform="translate(0,0)"/>
<path d="" fill="#FFFFFF" transform="translate(0,0)"/>
<path d="" fill="#FFFFFF" transform="translate(0,0)"/>
<path d="" fill="#FFFFFF" transform="translate(0,0)"/>
<path d="" fill="#FFFFFF" transform="translate(0,0)"/>
<path d="" fill="#FFFFFF" transform="translate(0,0)"/>
<path d="" fill="#FFFFFF" transform="translate(0,0)"/>
<path d="" fill="#FFFFFF" transform="translate(0,0)"/>
<path d="" fill="#FFFFFF" transform="translate(0,0)"/>
<path d="" fill="#FFFFFF" transform="translate(0,0)"/>
<path d="" fill="#FFFFFF" transform="translate(0,0)"/>
<path d="" fill="#FFFFFF" transform="translate(0,0)"/>
<path d="" fill="#FFFFFF" transform="translate(0,0)"/>
<path d="" fill="#FFFFFF" transform="translate(0,0)"/>
<path d="" fill="#FFFFFF" transform="translate(0,0)"/>
<path d="" fill="#FFFFFF" transform="translate(0,0)"/>
<path d="" fill="#FFFFFF" transform="translate(0,0)"/>
<path d="" fill="#FFFFFF" transform="translate(0,0)"/>
<path d="" fill="#FFFFFF" transform="translate(0,0)"/>
<path d="" fill="#FFFFFF" transform="translate(0,0)"/>
<path d="" fill="#FFFFFF" transform="translate(0,0)"/>
<path d="" fill="#FFFFFF" transform="translate(0,0)"/>
<path d="" fill="#FFFFFF" transform="translate(0,0)"/>
<path d="" fill="#FFFFFF" transform="translate(0,0)"/>
<path d="" fill="#FFFFFF" transform="translate(0,0)"/>
<path d="" fill="#FFFFFF" transform="translate(0,0)"/>
<path d="" fill="#FFFFFF" transform="translate(0,0)"/>
<path d="" fill="#FFFFFF" transform="translate(0,0)"/>
<path d="" fill="#FFFFFF" transform="translate(0,0)"/>
<path d="" fill="#FFFFFF" transform="translate(0,0)"/>
<path d="" fill="#FFFFFF" transform="translate(0,0)"/>
<path d="" fill="#FFFFFF" transform="translate(0,0)"/>
<path d="" fill="#FFFFFF" transform="translate(0,0)"/>
<path d="" fill="#FFFFFF" transform="translate(0,0)"/>
<path d="" fill="#FFFFFF" transform="translate(0,0)"/>
<path d="" fill="#FFFFFF" transform="translate(0,0)"/>
<path d="" fill="#FFFFFF" transform="translate(0,0)"/>
<path d="" fill="#FFFFFF" transform="translate(0,0)"/>
<path d="" fill="#FFFFFF" transform="translate(0,0)"/>
<path d="" fill="#FFFFFF" transform="translate(0,0)"/>
<path d="" fill="#FFFFFF" transform="translate(0,0)"/>
<path d="" fill="#FFFFFF" transform="translate(0,0)"/>
<path d="" fill="#FFFFFF" transform="translate(0,0)"/>
<path d="" fill="#FFFFFF" transform="translate(0,0)"/>
<path d="" fill="#FFFFFF" transform="translate(0,0)"/>
<path d="" fill="#FFFFFF" transform="translate(0,0)"/>
<path d="" fill="#FFFFFF" transform="translate(0,0)"/>
<path d="" fill="#FFFFFF" transform="translate(0,0)"/>
<path d="" fill="#FFFFFF" transform="translate(0,0)"/>
<path d="" fill="#FFFFFF" transform="translate(0,0)"/>
<path d="" fill="#FFFFFF" transform="translate(0,0)"/>
<path d="" fill="#FFFFFF" transform="translate(0,0)"/>
<path d="" fill="#FFFFFF" transform="translate(0,0)"/>
<path d="" fill="#FFFFFF" transform="translate(0,0)"/>
<path d="" fill="#FFFFFF" transform="translate(0,0)"/>
<path d="" fill="#FFFFFF" transform="translate(0,0)"/>
<path d="" fill="#FFFFFF" transform="translate(0,0)"/>
<path d="" fill="#FFFFFF" transform="translate(0,0)"/>
<path d="" fill="#FFFFFF" transform="translate(0,0)"/>
<path d="" fill="#FFFFFF" transform="translate(0,0)"/>
<path d="" fill="#FFFFFF" transform="translate(0,0)"/>
<path d="" fill="#FFFFFF" transform="translate(0,0)"/>
<path d="" fill="#FFFFFF" transform="translate(0,0)"/>
<path d="" fill="#FFFFFF" transform="translate(0,0)"/>
<path d="" fill="#FFFFFF" transform="translate(0,0)"/>
<path d="" fill="#FFFFFF" transform="translate(0,0)"/>
<path d="" fill="#FFFFFF" transform="translate(0,0)"/>
<path d="" fill="#FFFFFF" transform="translate(0,0)"/>
<path d="" fill="#FFFFFF" transform="translate(0,0)"/>
<path d="" fill="#FFFFFF" transform="translate(0,0)"/>
<path d="" fill="#FFFFFF" transform="translate(0,0)"/>
<path d="" fill="#FFFFFF" transform="translate(0,0)"/>
<path d="" fill="#FFFFFF" transform="translate(0,0)"/>
<path d="" fill="#FFFFFF" transform="translate(0,0)"/>
<path d="" fill="#FFFFFF" transform="translate(0,0)"/>
<path d="" fill="#FFFFFF" transform="translate(0,0)"/>
<path d="" fill="#FFFFFF" transform="translate(0,0)"/>
<path d="" fill="#FFFFFF" transform="translate(0,0)"/>
<path d="" fill="#FFFFFF" transform="translate(0,0)"/>
<path d="" fill="#FFFFFF" transform="translate(0,0)"/>
<path d="" fill="#FFFFFF" transform="translate(0,0)"/>
<path d="" fill="#FFFFFF" transform="translate(0,0)"/>
<path d="" fill="#FFFFFF" transform="translate(0,0)"/>
<path d="" fill="#FFFFFF" transform="translate(0,0)"/>
<path d="" fill="#FFFFFF" transform="translate(0,0)"/>
<path d="" fill="#FFFFFF" transform="translate(0,0)"/>
<path d="" fill="#FFFFFF" transform="translate(0,0)"/>
<path d="" fill="#FFFFFF" transform="translate(0,0)"/>
<path d="" fill="#FFFFFF" transform="translate(0,0)"/>
<path d="" fill="#FFFFFF" transform="translate(0,0)"/>
<path d="" fill="#FFFFFF" transform="translate(0,0)"/>
<path d="" fill="#FFFFFF" transform="translate(0,0)"/>
<path d="" fill="#FFFFFF" transform="translate(0,0)"/>
<path d="" fill="#FFFFFF" transform="translate(0,0)"/>
<path d="" fill="#FFFFFF" transform="translate(0,0)"/>
<path d="" fill="#FFFFFF" transform="translate(0,0)"/>
<path d="" fill="#FFFFFF" transform="translate(0,0)"/>
<path d="" fill="#FFFFFF" transform="translate(0,0)"/>
<path d="" fill="#FFFFFF" transform="translate(0,0)"/>
<path d="" fill="#FFFFFF" transform="translate(0,0)"/>
<path d="" fill="#FFFFFF" transform="translate(0,0)"/>
<path d="" fill="#FFFFFF" transform="translate(0,0)"/>
<path d="" fill="#FFFFFF" transform="translate(0,0)"/>
<path d="" fill="#FFFFFF" transform="translate(0,0)"/>
<path d="" fill="#FFFFFF" transform="translate(0,0)"/>
<path d="" fill="#FFFFFF" transform="translate(0,0)"/>
<path d="" fill="#FFFFFF" transform="translate(0,0)"/>
<path d="" fill="#FFFFFF" transform="translate(0,0)"/>
<path d="" fill="#FFFFFF" transform="translate(0,0)"/>
<path d="" fill="#FFFFFF" transform="translate(0,0)"/>
<path d="" fill="#FFFFFF" transform="translate(0,0)"/>
<path d="" fill="#FFFFFF" transform="translate(0,0)"/>
<path d="" fill="#FFFFFF" transform="translate(0,0)"/>
<path d="" fill="#FFFFFF" transform="translate(0,0)"/>
</svg>
